<svg version="1.0" xmlns="http://www.w3.org/2000/svg" width="512" height="512"><style>@media (prefers-color-scheme:dark){.a{fill:#f6f6f6}}</style><path d="M31 2.2c-.1 2.9 40.2 457.2 40.6 457.6.1.2 41.5 12 92 26.3l91.9 26 92.3-26c50.8-14.3 92.5-26.1 92.6-26.3.4-.4 40.7-454.7 40.6-457.6V0H31v2.2zm225 61.3c0 .8-3.4 14.5-7.6 30.3-4.1 15.8-8 30.4-8.5 32.4l-1 3.8h-39.4c-30.9 0-39.5.3-39.5 1.2-.1 2.4 5.1 62.3 5.6 65.5l.5 3.3H193c21 0 27 .3 27 1.2 0 .7-4 16.4-8.8 34.8l-8.8 33.5-15.2.3-15.2.3v2.6c0 1.5 1.6 21.2 3.6 43.8l3.6 41.2-8.6 32.8c-4.7 18-8.7 32.9-9 33.2-.2.2-10.9-2.5-23.8-6l-23.3-6.4-14.6-168.4C91.8 150.3 85 71.7 84.7 68.2l-.6-6.2H170c76 0 86 .2 86 1.5zm171 .7c0 7.2-30 346.2-30.7 346.8-.4.4-32.2 9.4-70.7 20l-69.8 19.2-30.2-8.2c-16.5-4.6-30.4-8.6-30.8-8.9-.7-.6 15.2-63.8 16.6-65.9.3-.5 10.3 1.7 22.1 4.9l21.6 5.9 37.7-10.2c20.7-5.5 37.9-10.2 38-10.4.2-.1 2.3-19.9 4.6-43.8l4.2-43.6h-51.3c-28.2 0-51.3-.3-51.3-.7 0-.9 15.8-61.7 17.1-66.1l1.1-3.2H346v-2.8c.1-1.5 1.4-16.9 2.9-34.2 1.5-17.3 2.6-31.8 2.4-32.3-.2-.4-17.7-.7-38.9-.7-28.3 0-38.4-.3-38.4-1.2 0-.9 14.8-59 16.6-65.1.5-1.6 4.6-1.7 68.5-1.7H427v2.2z" class="a" fill="#070707"/></svg>