<svg width="14" height="15" fill="none" xmlns="http://www.w3.org/2000/svg"><mask id="a" fill="#fff"><path fill-rule="evenodd" clip-rule="evenodd" d="M13.286.17c.667.368.91 1.205.543 1.872L7.617 13.336c-.752 1.368-2.692 1.44-3.543.13L.223 7.542a1.378 1.378 0 0 1 2.31-1.502L5.757 11 11.415.714a1.378 1.378 0 0 1 1.87-.543Z"/></mask><path fill-rule="evenodd" clip-rule="evenodd" d="M13.286.17c.667.368.91 1.205.543 1.872L7.617 13.336c-.752 1.368-2.692 1.44-3.543.13L.223 7.542a1.378 1.378 0 0 1 2.31-1.502L5.757 11 11.415.714a1.378 1.378 0 0 1 1.87-.543Z" fill="#070707"/><path d="m13.83 2.042 2.453 1.35-2.454-1.35ZM13.285.171l1.35-2.454-1.35 2.454ZM7.617 13.336l2.454 1.35-2.454-1.35Zm-3.543.13-2.348 1.526 2.348-1.526ZM.223 7.542l-2.348 1.526L.223 7.542Zm.404-1.906 1.526 2.347L.627 5.636Zm1.906.404 2.348-1.526L2.533 6.04ZM5.757 11 3.41 12.526l2.548 3.92L8.21 12.35 5.757 11ZM11.415.714 8.96-.636l2.454 1.35Zm4.868 2.677a4.178 4.178 0 0 0-1.648-5.674l-2.698 4.907a1.422 1.422 0 0 1-.561-1.931l4.907 2.698ZM10.07 14.685l6.212-11.294L11.376.693 5.164 11.987l4.907 2.698Zm-8.345.307c2.004 3.084 6.573 2.916 8.345-.307l-4.907-2.698a.733.733 0 0 1 1.257-.046l-4.695 3.051Zm-3.85-5.924 3.85 5.924 4.695-3.052-3.85-5.924-4.696 3.052ZM-.9 3.288a4.178 4.178 0 0 0-1.226 5.78L2.57 6.016c.428.658.242 1.54-.417 1.967L-.899 3.288Zm5.78 1.226A4.178 4.178 0 0 0-.9 3.288l3.052 4.695a1.422 1.422 0 0 1-1.967-.417L4.88 4.514Zm3.224 4.96-3.224-4.96L.186 7.566l3.224 4.96 4.695-3.052ZM8.96-.636 3.304 9.652 8.21 12.35l5.657-10.287L8.961-.635Zm5.674-1.647A4.178 4.178 0 0 0 8.961-.635l4.907 2.698a1.422 1.422 0 0 1-1.931.561l2.698-4.907Z" fill="#2176ff" mask="url(#a)"/></svg>