<svg width="16" height="15" fill="none" xmlns="http://www.w3.org/2000/svg"><path d="M13.5 0h-11A2.503 2.503 0 0 0 0 2.5v8.75c0 1.379 1.121 2.5 2.5 2.5h8.531a.625.625 0 1 0 0-1.25H8.73l-1.437-1.864 4.554-5.792 3.066 3.388A.625.625 0 0 0 16 7.812V2.5C16 1.121 14.879 0 13.5 0Zm1.25 6.19-2.474-2.734a.624.624 0 0 0-.955.033L6.505 9.614 4.87 7.494a.625.625 0 0 0-.99 0L2.504 9.282a.625.625 0 1 0 .991.762l.88-1.145L7.151 12.5H2.5c-.69 0-1.25-.56-1.25-1.25V2.5c0-.69.56-1.25 1.25-1.25h11c.69 0 1.25.56 1.25 1.25v3.69Z" fill="#070707"/><path d="M4.375 2.25A1.877 1.877 0 0 0 2.5 4.125C2.5 5.159 3.341 6 4.375 6A1.877 1.877 0 0 0 6.25 4.125 1.877 1.877 0 0 0 4.375 2.25Zm0 2.5a.626.626 0 1 1 .001-1.251.626.626 0 0 1-.001 1.251ZM14.64 9.467l-.006-.006A1.549 1.549 0 0 0 13.528 9c-.417 0-.809.163-1.104.459l-1.207 1.19a.625.625 0 0 0 .878.89l.808-.797v3.508a.625.625 0 1 0 1.25 0v-3.489l.773.799a.623.623 0 0 0 .884.014.625.625 0 0 0 .014-.884L14.64 9.467Z" fill="#070707"/></svg>