<svg xmlns="http://www.w3.org/2000/svg" xmlns:xlink="http://www.w3.org/1999/xlink"><symbol id="icon-btn-cross" viewBox="0 0 26 26"><rect x="3.373" width="32" height="4" rx="2" transform="rotate(45 3.373 0)"/><rect x=".544" y="22.629" width="32" height="4" rx="2" transform="rotate(-45 .544 22.629)"/></symbol><symbol id="icon-btn-menu"><rect width="32" height="4" rx="2"/><rect y="8" width="32" height="4" rx="2"/><rect y="16" width="32" height="4" rx="2"/></symbol><symbol id="icon-btn-next"><g fill="none"><rect x="1.25" y="1.25" width="39.5" height="39.5" rx="19.75" stroke="#070707" stroke-width="2.5"/><rect x="17.421" y="9.301" width="16.551" height="3" rx="1.5" transform="rotate(45 17.42 9.301)" fill="#070707"/><rect x="15.3" y="30.58" width="16.551" height="3" rx="1.5" transform="rotate(-45 15.3 30.58)" fill="#070707"/></g></symbol><symbol id="icon-btn-prev"><g fill="none"><rect x="40.75" y="40.75" width="39.5" height="39.5" rx="19.75" transform="rotate(-180 40.75 40.75)" stroke="#070707" stroke-width="2.5"/><rect x="24.579" y="32.699" width="16.551" height="3" rx="1.5" transform="rotate(-135 24.58 32.7)" fill="#070707"/><rect x="26.7" y="11.42" width="16.551" height="3" rx="1.5" transform="rotate(135 26.7 11.42)" fill="#070707"/></g></symbol><symbol id="icon-btn-up"><g fill="none"><rect x="11.25" y="50.75" width="39.5" height="39.5" rx="19.75" transform="rotate(-90 11.25 50.75)" fill="#fff" stroke="#070707" stroke-width="2.5"/><rect x="19.301" y="34.579" width="16.551" height="3" rx="1.5" transform="rotate(-45 19.3 34.579)" fill="#070707"/><rect x="40.58" y="36.7" width="16.551" height="3" rx="1.5" transform="rotate(-135 40.58 36.7)" fill="#070707"/></g></symbol><symbol id="icon-portfolio-btn-next"><g fill="none"><rect y="9" width="29.93" height="5.425" rx="2.713" transform="rotate(45 12.836 9)" fill="#070707"/><rect x="8" y="35" width="29.93" height="5.425" rx="2.713" transform="rotate(-45 9 47.48)" fill="#070707"/></g></symbol><symbol id="icon-portfolio-btn-prev"><g fill="none"><rect x="42" y="53" width="29.93" height="5.425" rx="2.713" transform="rotate(-135 30.164 52)" fill="#070707"/><rect x="33" y="27" width="29.93" height="5.425" rx="2.713" transform="rotate(135 34 13.52)" fill="#070707"/></g></symbol><symbol id="icon-skills-css" viewBox="0 0 79 90"><g fill="none"><path d="m0 0 7.195 81L39.5 90l32.294-8.994L79 0H0Z" fill="#2196f3"/><path d="m63.617 26.489-.908 10.175-2.742 30.505L39.5 72.81l-.017.005-20.455-5.647L17.6 51.216h10.022l.744 8.274 11.123 2.993.005-.006 11.14-2.992 1.517-13.787-35.03.096-.994-9.428 36.865-.433.745-10.091-38.597.107-.65-9.389H64.51l-.892 9.929Z" fill="#fafafa"/></g></symbol><symbol id="icon-skills-figma" viewBox="0 0 60 90"><g fill="none"><path d="M14.995 90c8.28 0 14.996-6.714 14.996-14.993V60.013H14.995C6.715 60.013 0 66.728 0 75.007s6.716 14.994 14.995 14.994Z" fill="#0acf83"/><path d="M0 45.001c0-8.278 6.716-14.993 14.995-14.993h14.996v30.006H14.995C6.715 59.995 0 53.28 0 45Z" fill="#a259ff"/><path d="M0 14.994C0 6.715 6.716 0 14.995 0h14.996v30.006H14.995C6.715 30.006 0 23.273 0 14.994Z" fill="#f24e1e"/><path d="M30.01 0h14.995C53.285 0 60 6.715 60 14.994s-6.716 14.994-14.995 14.994H30.009V0Z" fill="#ff7262"/><path d="M60 45.001c0 8.28-6.716 14.994-14.995 14.994-8.28 0-14.996-6.715-14.996-14.994 0-8.278 6.716-14.993 14.996-14.993C53.285 30.008 60 36.723 60 45Z" fill="#1abcfe"/></g></symbol><symbol id="icon-skills-git" viewBox="0 0 256 256" preserveAspectRatio="xMinYMin meet"><path d="M251.172 116.594 139.4 4.828c-6.433-6.437-16.873-6.437-23.314 0l-23.21 23.21 29.443 29.443c6.842-2.312 14.688-.761 20.142 4.693 5.48 5.489 7.02 13.402 4.652 20.266l28.375 28.376c6.865-2.365 14.786-.835 20.269 4.657 7.663 7.66 7.663 20.075 0 27.74-7.665 7.666-20.08 7.666-27.749 0-5.764-5.77-7.188-14.235-4.27-21.336l-26.462-26.462-.003 69.637a19.82 19.82 0 0 1 5.188 3.71c7.663 7.66 7.663 20.076 0 27.747-7.665 7.662-20.086 7.662-27.74 0-7.663-7.671-7.663-20.086 0-27.746a19.654 19.654 0 0 1 6.421-4.281V94.196a19.378 19.378 0 0 1-6.421-4.281c-5.806-5.798-7.202-14.317-4.227-21.446L81.47 39.442 4.83 116.077c-6.44 6.443-6.44 16.884 0 23.322l111.774 111.768c6.435 6.438 16.873 6.438 23.316 0l111.251-111.249c6.438-6.44 6.438-16.887 0-23.324" fill="#f05133"/></symbol><symbol id="icon-skills-html" viewBox="0 0 79 90"><g fill="none"><path d="m0 0 7.195 81L39.5 90l32.294-8.994L79 0H0Z" fill="#ff5722"/><path d="M63.398 26.489H25.534l.903 10.175h36.058l-2.714 30.51-20.28 5.642-.018.006-20.269-5.648-1.416-15.958h9.931l.74 8.28 11.02 2.987.011-.005 11.032-2.987 1.151-12.887H17.392L14.716 16.56h49.561l-.88 9.928Z" fill="#fafafa"/></g></symbol><symbol id="icon-skills-js" viewBox="0 0 68 90"><g fill="none"><path d="M64.072 90H3.928C1.758 90 0 88.23 0 86.046V3.954C0 1.77 1.759 0 3.928 0H51.57L68 15.724v70.322C68 88.23 66.24 90 64.071 90Z" fill="#f4f4f4"/><path d="M51.57 0h-7.063l16.429 15.724v70.322c0 2.184-1.758 3.954-3.928 3.954h7.064C66.24 90 68 88.23 68 86.046V15.724L51.57 0Z" fill="#e8e8e8"/><path d="M60.936 8.963 51.57 0H3.928C1.758 0 0 1.77 0 3.954v5.01h60.936Z" fill="#f6d867"/><path d="M46.413 8.963h14.523L51.57 0h-5.157v8.963Z" fill="#e0c55e"/><path d="M51.57 0v11.77c0 2.184 1.759 3.954 3.928 3.954H68L51.57 0Z" fill="#dedcdd"/><path d="M0 64.956v21.09C0 88.23 1.759 90 3.928 90h60.144C66.242 90 68 88.23 68 86.046v-21.09H0Z" fill="#f6d867"/><path d="M60.936 86.045c0 2.184-1.758 3.954-3.928 3.954h7.063C66.239 90 68 88.232 68 86.045v-21.09h-7.063v21.09Z" fill="#e0c55e"/><path d="M27.967 83.676c2.525 0 4.571-2.02 4.571-4.513v-6.619c0-.596-.48-1.08-1.072-1.08-.592 0-1.073.484-1.073 1.08v6.619c0 2.785-3.952 3.418-4.747.659a1.069 1.069 0 0 0-1.026-.776c-.716 0-1.227.701-1.023 1.39a4.533 4.533 0 0 0 4.37 3.24ZM39.679 81.605c-1.175 0-2.329-.438-3.35-.96-.69-.354-1.507.154-1.507.932 0 .392.215.735.533.914 4.006 2.237 9.089 1.181 9.089-2.425 0-2.672-2.603-3.221-4.836-3.628-1.48-.27-2.48-.407-2.484-1.388-.003-.825.708-1.692 2.502-1.692 2.072 0 3.02 1.016 3.666 1.016 1.066 0 1.434-1.447.486-1.955-4.756-2.553-8.794-.434-8.799 2.72-.004 2.874 2.8 3.299 4.629 3.6 1.689.277 2.69.46 2.698 1.396.011 1.24-1.783 1.47-2.627 1.47Z" fill="#495663"/></g></symbol></svg>